:version 1.10
:name ASF
:units
  mass 1
  length 1
  angle deg
:documentation
  ASF file generated by Kaydara
:root
  axis xyz
  order  tx ty tz rx ry rz
  position 0 0 0
  orientation 0 0 0
:bonedata
  begin
    id 1
    name RightUpLegDummy
    direction -1 2.30186e-007 8.31532e-007
    length 4.46685
    axis 0 0 0 xyz
  end
  begin
    id 2
    name RightUpLeg
    direction -2.30187e-007 -1 1.24343e-010
    length 16.4045
    axis -3.49089 -0.000906625 0.000286804 xyz
    dof rx ry rz
  end
  begin
    id 3
    name RightLeg
    direction -2.30181e-007 -1 -4.17157e-009
    length 17.5097
    axis 3.68512 0.0193738 -0.131023 xyz
    dof rx ry rz
  end
  begin
    id 4
    name RightFoot
    direction 8.31421e-007 -4.51202e-011 1
    length 6.49508
    axis 4.81691e-005 -0.120479 -0.188788 xyz
    dof rx ry rz
  end
  begin
    id 5
    name RightToes
    direction 0.00124746 -0.014064 0.9999
    length 3.85082
    axis 0.000481921 0.542163 -0.142578 xyz
    dof rx ry rz
  end
  begin
    id 6
    name SpineDummy
    direction 0.0717043 0.9409 -0.331007
    length 10.0032
    axis 0 0 0 xyz
  end
  begin
    id 7
    name Spine
    direction 2.30186e-007 1 4.58806e-011
    length 9.84055
    axis -0.001389 0.000121418 2.40972e-006 xyz
    dof rx ry rz
  end
  begin
    id 8
    name Spine1
    direction 0 0 0
    length 0
    axis -0.001389 0.000121451 1.30017e-006 xyz
    dof rx ry rz
  end
  begin
    id 9
    name HEadDummy
    direction -0.00347485 0.950688 -0.310128
    length 8.00997
    axis -0.001389 0.000121451 1.30017e-006 xyz
  end
  begin
    id 10
    name HEad
    direction -0.0222688 0.980941 0.193023
    length 5.12695
    axis -0.001389 0.000121451 1.30017e-006 xyz
    dof rx ry rz
  end
  begin
    id 11
    name LeftShoulder1Dummy
    direction 0.988871 0.146793 -0.0242004
    length 3.5792
    axis -0.001389 0.000121451 1.30017e-006 xyz
  end
  begin
    id 12
    name LeftShoulder1
    direction 0.993832 0.108932 0.020779
    length 4.16823
    axis -0.001389 0.000121451 1.30017e-006 xyz
    dof rx ry rz
  end
  begin
    id 13
    name LeftArm
    direction 1 3.44807e-006 -8.31404e-007
    length 9.91437
    axis -23.1894 0.134784 0.967509 xyz
    dof rx ry rz
  end
  begin
    id 14
    name LeftForeArm
    direction 1 3.44842e-006 -8.31581e-007
    length 9.08575
    axis -9.91835 -0.06569 -0.177793 xyz
    dof rx ry rz
  end
  begin
    id 15
    name LeftHand
    direction 0.992938 -0.0411636 0.11126
    length 5.32135
    axis -0.00960232 -0.00340091 0.185173 xyz
    dof rx ry rz
  end
  begin
    id 16
    name RightShoulderDummy
    direction -0.988871 0.146793 -0.0241962
    length 3.5792
    axis -0.001389 0.000121451 1.30017e-006 xyz
  end
  begin
    id 17
    name RightShoulder
    direction -0.993832 0.108933 0.0207785
    length 4.16823
    axis 0.215806 0.000203643 -0.0068026 xyz
    dof rx ry rz
  end
  begin
    id 18
    name RightArm
    direction -1 3.90912e-006 8.31284e-007
    length 9.91437
    axis -23.2009 -0.134239 -0.964101 xyz
    dof rx ry rz
  end
  begin
    id 19
    name RightForeArm
    direction -1 3.90882e-006 8.31502e-007
    length 9.08575
    axis -9.92322 0.0658061 0.178867 xyz
    dof rx ry rz
  end
  begin
    id 20
    name RightHand
    direction -0.992843 -0.0414603 0.112003
    length 5.28593
    axis -0.00960638 0.00330671 -0.185228 xyz
    dof rx ry rz
  end
  begin
    id 21
    name LeftUpLegDummy
    direction 1 -2.30186e-007 -8.31532e-007
    length 4.46685
    axis 0 0 0 xyz
  end
  begin
    id 22
    name LeftUpLeg
    direction -2.30187e-007 -1 6.00931e-010
    length 16.4045
    axis -3.48766 0.00143442 -0.000524262 xyz
    dof rx ry rz
  end
  begin
    id 23
    name LeftLeg
    direction -2.30187e-007 -1 1.6669e-009
    length 17.5097
    axis 3.68178 -0.00654042 -0.000285133 xyz
    dof rx ry rz
  end
  begin
    id 24
    name LeftFoot
    direction 8.31532e-007 -4.54478e-011 1
    length 6.49508
    axis 1.87233e-006 4.66016e-005 -8.6538e-006 xyz
    dof rx ry rz
  end
  begin
    id 25
    name LeftToes
    direction 0.00818058 -0.00485161 0.999955
    length 3.85048
    axis 1.06247e-005 4.65869e-005 -8.65513e-006 xyz
    dof rx ry rz
  end
:hierarchy
  begin
    root RightUpLegDummy SpineDummy LeftUpLegDummy
    RightUpLegDummy RightUpLeg
    RightUpLeg RightLeg
    RightLeg RightFoot
    RightFoot RightToes
    SpineDummy Spine
    Spine Spine1
    Spine1 HEadDummy LeftShoulder1Dummy RightShoulderDummy
    HEadDummy HEad
    LeftShoulder1Dummy LeftShoulder1
    LeftShoulder1 LeftArm
    LeftArm LeftForeArm
    LeftForeArm LeftHand
    RightShoulderDummy RightShoulder
    RightShoulder RightArm
    RightArm RightForeArm
    RightForeArm RightHand
    LeftUpLegDummy LeftUpLeg
    LeftUpLeg LeftLeg
    LeftLeg LeftFoot
    LeftFoot LeftToes
  end

:SAMPLES-PER-SECOND 30
:FULLY-SPECIFIED
:DEGREES
64
root  -57.8555 27.9056 1.23443 14.7814 23.4209 4.30192
RightUpLeg  -51.0187 9.12489 -21.9368
RightLeg  68.0502 7.88219 15.8247
RightFoot  -21.3615 -1.14547 -5.69059
RightToes  -51.5778 -0.316929 -0.370767
Spine  15.414 2.05883 0.949834
Spine1  26.8245 6.25105 -1.48391
HEad  9.28973 23.7802 -13.3043
LeftShoulder1  0 -2.42657e-020 -4.95415e-022
LeftArm  -17.6171 -23.7274 -70.0705
LeftForeArm  45.4605 -23.3386 -4.33809
LeftHand  0.233039 -11.3979 -2.70644
RightShoulder  0 2.42657e-020 1.07489e-018
RightArm  -17.9841 33.4426 55.3867
RightForeArm  68.0777 43.1771 9.45999
RightHand  -3.62352 21.9712 -18.145
LeftUpLeg  -55.1894 -0.441875 5.1034
LeftLeg  66.9949 -9.12221 -17.5185
LeftFoot  -12.3558 0.475165 4.3876
LeftToes  -36.2418 1.71452e-006 7.46813e-008
65
root  -57.6886 26.5713 0.860619 15.4723 23.3731 5.76872
RightUpLeg  -55.6461 9.01572 -24.7117
RightLeg  75.314 5.47715 15.8158
RightFoot  -24.2136 -1.33189 -5.82595
RightToes  -51.8623 -0.319481 -0.374271
Spine  17.1004 2.87212 1.36982
Spine1  29.1116 8.55906 -1.57779
HEad  9.87158 20.685 -12.8042
LeftShoulder1  0 -2.42657e-020 -4.95415e-022
LeftArm  -14.3471 -28.3006 -72.8646
LeftForeArm  44.3101 -23.2798 -4.32746
LeftHand  0.211749 -11.1769 -2.53533
RightShoulder  0 2.42657e-020 1.07489e-018
RightArm  -24.0604 36.3719 54.8169
RightForeArm  69.3166 30.5759 5.90411
RightHand  -3.70164 23.0797 -17.6214
LeftUpLeg  -59.9547 -0.672437 3.61721
LeftLeg  73.7994 -6.96462 -18.5538
LeftFoot  -14.7836 0.66847 5.14928
LeftToes  -36.097 1.71452e-006 7.46813e-008
66
root  -57.5853 25.4865 0.581782 15.3095 23.8476 6.44795
RightUpLeg  -58.0981 8.88038 -26.542
RightLeg  80.1149 4.06419 16.0246
RightFoot  -26.7198 -1.57293 -6.23868
RightToes  -53.2512 -0.332016 -0.3781
Spine  18.3901 3.14991 2.31675
Spine1  31.0798 9.33498 -0.311076
HEad  10.3619 17.5081 -12.4882
LeftShoulder1  0 -2.42657e-020 -4.95415e-022
LeftArm  -11.354 -30.9566 -76.1817
LeftForeArm  45.0204 -23.3996 -4.35153
LeftHand  0.240583 -11.4309 -2.77503
RightShoulder  0 2.42657e-020 1.07489e-018
RightArm  -35.6285 38.4817 53.156
RightForeArm  67.9117 19.8601 3.58183
RightHand  -3.5665 22.6634 -17.2966
LeftUpLeg  -63.3932 -0.877272 2.86172
LeftLeg  79.1326 -5.26367 -19.4924
LeftFoot  -16.3469 0.806852 5.61318
LeftToes  -35.3821 1.71452e-006 7.46813e-008
67
root  -57.4793 24.7601 0.30134 14.9276 24.301 6.82969
RightUpLeg  -59.3714 8.28349 -27.6829
RightLeg  83.0106 3.28592 16.4527
RightFoot  -28.0543 -1.76392 -6.67469
RightToes  -54.4273 -0.342727 -0.381329
Spine  18.8596 2.80557 3.22272
Spine1  31.7979 8.20123 1.81049
HEad  10.9108 14.7144 -11.9859
LeftShoulder1  0 -2.42657e-020 -4.95415e-022
LeftArm  -8.25041 -31.4376 -78.9162
LeftForeArm  45.939 -23.4674 -4.36438
LeftHand  0.293085 -12.5329 -3.04019
RightShoulder  0 2.42657e-020 1.07489e-018
RightArm  -56.7577 38.5826 50.3168
RightForeArm  63.3002 10.9165 1.89635
RightHand  -2.77119 20.0576 -15.2113
LeftUpLeg  -65.5394 -1.39055 2.37212
LeftLeg  82.4288 -4.11616 -19.8699
LeftFoot  -17.2237 0.860308 5.67602
LeftToes  -34.9523 1.71452e-006 7.46813e-008
68
root  -57.3612 24.4987 0.00966485 14.4344 24.3338 6.80243
RightUpLeg  -59.6741 8.06295 -28.2772
RightLeg  83.5994 3.16448 16.7485
RightFoot  -28.0974 -1.82417 -6.90337
RightToes  -54.9267 -0.347302 -0.383047
Spine  18.6409 2.00572 3.88024
Spine1  31.4601 5.7847 3.98683
HEad  11.3599 13.4022 -11.9253
LeftShoulder1  0 -2.42657e-020 -4.95415e-022
LeftArm  -5.9057 -29.7855 -80.4668
LeftForeArm  46.875 -24.3293 -4.54522
LeftHand  0.342444 -13.0542 -3.36405
RightShoulder  0 2.42657e-020 1.07489e-018
RightArm  -73.581 34.7052 49.3136
RightForeArm  52.0426 10.7074 1.88176
RightHand  -2.32222 18.1874 -14.0684
LeftUpLeg  -66.3261 -1.87393 2.13986
LeftLeg  83.5688 -3.64324 -19.6454
LeftFoot  -17.3271 0.82 5.37774
LeftToes  -34.6705 1.71452e-006 7.46813e-008
69
root  -57.2063 24.664 -0.301452 13.9051 23.9538 6.42319
RightUpLeg  -59.2016 8.06252 -28.4079
RightLeg  82.152 3.68732 17.0792
RightFoot  -27.0932 -1.77868 -6.99534
RightToes  -55.2171 -0.349968 -0.384028
Spine  18.0909 0.906002 4.27404
Spine1  30.7402 3.01727 5.23609
HEad  11.6626 14.3503 -12.3087
LeftShoulder1  0 -2.42657e-020 -4.95415e-022
LeftArm  -5.18981 -27.1162 -80.61
LeftForeArm  47.2128 -25.6403 -4.82697
LeftHand  0.371073 -13.4182 -3.52544
RightShoulder  0 2.42657e-020 1.07489e-018
RightArm  -81.2273 30.7804 50.9729
RightForeArm  33.7112 15.0172 2.70377
RightHand  -0.865809 17.926 -5.11715
LeftUpLeg  -65.9534 -2.27062 2.05015
LeftLeg  82.885 -3.74222 -18.9275
LeftFoot  -16.7989 0.716252 4.84791
LeftToes  -33.7057 1.71452e-006 7.46813e-008
70
root  -56.9897 25.1818 -0.63501 13.3722 22.7287 5.67027
RightUpLeg  -58.2687 8.84579 -28.2546
RightLeg  78.7395 4.82922 17.2135
RightFoot  -24.9688 -1.58323 -6.76453
RightToes  -55.8656 -0.355941 -0.387387
Spine  17.4036 -0.126381 4.35675
Spine1  29.8898 0.642713 5.55795
HEad  12.2324 16.4853 -13.1949
LeftShoulder1  0 -2.42657e-020 -4.95415e-022
LeftArm  -5.95355 -24.0994 -80.3458
LeftForeArm  47.5448 -26.4058 -4.99424
LeftHand  0.314003 -13.4032 -3.04337
RightShoulder  0 2.42657e-020 1.07489e-018
RightArm  -77.6579 26.7158 52.6753
RightForeArm  23.927 20.2277 3.72087
RightHand  0.0779574 19.9317 0.813932
LeftUpLeg  -64.5714 -2.28391 2.09875
LeftLeg  80.6784 -4.19589 -17.6084
LeftFoot  -15.8585 0.576553 4.13769
LeftToes  -32.3354 1.71452e-006 7.46813e-008
